<?xml version="1.0" encoding="UTF-8"?><!DOCTYPE svg PUBLIC "-//W3C//DTD SVG 1.0//EN" "http://www.w3.org/TR/2001/REC-SVG-20010904/DTD/svg10.dtd" []><svg xmlns="http://www.w3.org/2000/svg" xmlns:xlink="http://www.w3.org/1999/xlink" data-name="Layer 24" height="680.2" preserveAspectRatio="xMidYMid meet" version="1.0" viewBox="36.1 132.6 877.6 680.2" width="877.6" zoomAndPan="magnify"><g id="change1_1"><path d="M38.88,168.17c-1.03,0-1.99-.64-2.36-1.67-.46-1.3,.22-2.73,1.52-3.19,1.88-.67,3.77-1.34,5.66-2,1.3-.46,2.73,.23,3.19,1.53,.46,1.3-.23,2.73-1.53,3.19-1.89,.66-3.77,1.33-5.65,2-.28,.1-.56,.14-.84,.14Z" fill="#49ff00"/></g><g id="change1_2"><path d="M790.36,812.75c-1.51,0-3.04-.03-4.54-.09-1.38-.06-2.45-1.22-2.4-2.6,.06-1.38,1.23-2.42,2.6-2.4,3.85,.16,7.83,.1,11.74-.16,1.36-.1,2.57,.95,2.66,2.33,.09,1.38-.95,2.57-2.33,2.66-2.57,.17-5.17,.26-7.74,.26Zm-16.38-1.24c-.13,0-.25,0-.38-.03-4.08-.63-8.13-1.5-12.03-2.59-1.33-.37-2.11-1.75-1.73-3.08,.37-1.33,1.75-2.11,3.08-1.73,3.71,1.04,7.56,1.87,11.44,2.47,1.37,.21,2.3,1.49,2.09,2.85-.19,1.24-1.25,2.12-2.47,2.12Zm35.88-.43c-1.2,0-2.25-.86-2.46-2.08-.23-1.36,.68-2.65,2.04-2.89,3.84-.66,7.7-1.52,11.48-2.56,1.33-.37,2.71,.42,3.08,1.75,.37,1.33-.41,2.71-1.75,3.08-3.93,1.09-7.96,1.98-11.96,2.67-.14,.02-.29,.04-.42,.04Zm-58.95-6.05c-.32,0-.65-.06-.97-.2-3.8-1.6-7.51-3.47-11.03-5.53-1.19-.7-1.59-2.23-.89-3.42,.7-1.19,2.24-1.58,3.42-.89,3.32,1.96,6.83,3.72,10.43,5.24,1.27,.54,1.87,2,1.33,3.28-.4,.96-1.33,1.53-2.3,1.53Zm82.08-.33c-1,0-1.95-.61-2.33-1.6-.5-1.29,.15-2.74,1.43-3.23,.46-.18,.92-.36,1.38-.54,3.15-1.26,6.31-2.68,9.4-4.2,1.24-.61,2.74-.1,3.35,1.13,.61,1.24,.1,2.74-1.13,3.35-3.21,1.58-6.49,3.05-9.75,4.36-.48,.19-.96,.38-1.45,.57-.3,.11-.6,.17-.9,.17Zm21.53-10.6c-.85,0-1.67-.43-2.14-1.21-.71-1.18-.33-2.72,.85-3.43,3.32-2,6.64-4.18,9.88-6.49,1.12-.8,2.69-.54,3.49,.59,.8,1.12,.54,2.69-.59,3.49-3.34,2.38-6.77,4.63-10.2,6.7-.4,.24-.85,.36-1.29,.36Zm-124.26-1.19c-.54,0-1.08-.17-1.53-.53-3.19-2.48-6.3-5.21-9.24-8.12-.98-.97-.99-2.55-.02-3.54,.97-.98,2.55-.99,3.54-.02,2.8,2.77,5.75,5.37,8.78,7.72,1.09,.85,1.29,2.42,.44,3.51-.49,.63-1.23,.97-1.98,.97Zm143.83-12.71c-.72,0-1.44-.31-1.93-.91-.88-1.06-.73-2.64,.34-3.52,2.99-2.46,5.98-5.1,8.89-7.83,1.01-.94,2.59-.9,3.53,.11,.95,1.01,.9,2.59-.11,3.53-2.99,2.81-6.06,5.52-9.13,8.05-.46,.38-1.03,.57-1.59,.57Zm-160.88-4.12c-.73,0-1.45-.32-1.94-.93-2.51-3.1-4.94-6.43-7.23-9.9-.76-1.15-.44-2.7,.71-3.46s2.7-.44,3.46,.71c2.2,3.34,4.53,6.54,6.94,9.5,.87,1.07,.7,2.65-.37,3.52-.46,.38-1.02,.56-1.57,.56Zm178.4-12.31c-.62,0-1.23-.23-1.72-.68-1-.95-1.05-2.53-.1-3.53,2.68-2.83,5.34-5.81,7.91-8.85,.89-1.06,2.47-1.19,3.52-.29,1.05,.89,1.19,2.47,.29,3.52-2.63,3.11-5.36,6.16-8.1,9.06-.49,.52-1.15,.78-1.82,.78Zm-191.64-7.71c-.89,0-1.75-.47-2.2-1.31-1.89-3.49-3.71-7.17-5.4-10.95-.56-1.26,0-2.74,1.26-3.3,1.26-.57,2.74,0,3.3,1.26,1.64,3.66,3.4,7.23,5.23,10.61,.66,1.21,.21,2.73-1.01,3.39-.38,.21-.79,.3-1.19,.3Zm-9.86-21.91c-1.01,0-1.97-.62-2.34-1.63-1.38-3.71-2.69-7.59-3.89-11.53-.4-1.32,.34-2.72,1.66-3.12,1.32-.4,2.72,.34,3.12,1.66,1.18,3.85,2.45,7.63,3.8,11.25,.48,1.29-.18,2.73-1.47,3.21-.29,.11-.58,.16-.87,.16Zm-7.06-22.97c-1.12,0-2.14-.76-2.42-1.89-.96-3.85-1.86-7.83-2.67-11.84-.27-1.35,.6-2.67,1.96-2.94,1.34-.27,2.67,.6,2.94,1.96,.79,3.93,1.67,7.84,2.61,11.61,.33,1.34-.48,2.7-1.82,3.03-.2,.05-.41,.08-.61,.08Zm-4.76-23.55c-1.21,0-2.27-.88-2.47-2.11-.29-1.86-.57-3.72-.82-5.57-.29-2.13-.57-4.27-.84-6.41-.17-1.37,.81-2.62,2.18-2.79,1.38-.17,2.62,.81,2.79,2.18,.26,2.11,.54,4.22,.83,6.33,.25,1.82,.52,3.65,.81,5.47,.21,1.36-.72,2.64-2.08,2.86-.13,.02-.26,.03-.39,.03Zm-2.98-23.83c-1.27,0-2.36-.96-2.48-2.25-.37-3.71-.74-7.63-1.11-12-.12-1.38,.9-2.59,2.28-2.71,1.38-.11,2.59,.9,2.71,2.28,.37,4.35,.74,8.25,1.11,11.93,.14,1.37-.86,2.6-2.24,2.74-.08,0-.17,.01-.25,.01Zm-2.09-23.94c-1.29,0-2.38-.99-2.49-2.3l-.35-4.39c-.2-2.53-.4-5.06-.6-7.58-.11-1.38,.92-2.58,2.29-2.69,1.38-.1,2.58,.92,2.69,2.29,.2,2.53,.4,5.06,.6,7.59l.35,4.39c.11,1.38-.92,2.58-2.29,2.69-.07,0-.13,0-.2,0Zm-1.96-23.95c-1.28,0-2.37-.98-2.49-2.28-.39-4.36-.77-8.26-1.16-11.92-.15-1.37,.85-2.6,2.22-2.75,1.37-.13,2.6,.85,2.75,2.22,.39,3.68,.77,7.61,1.16,12,.12,1.38-.89,2.59-2.27,2.71-.08,0-.15,0-.23,0Zm-2.56-23.89c-1.24,0-2.31-.92-2.48-2.18-.54-4.16-1.11-8.02-1.73-11.81-.22-1.36,.7-2.65,2.06-2.87,1.37-.22,2.65,.7,2.87,2.06,.63,3.83,1.2,7.75,1.75,11.96,.18,1.37-.79,2.62-2.15,2.8-.11,.01-.22,.02-.33,.02Zm-3.91-23.7c-1.16,0-2.2-.81-2.45-2-.82-3.98-1.71-7.88-2.67-11.59-.34-1.34,.46-2.7,1.8-3.04,1.33-.34,2.7,.46,3.04,1.8,.97,3.79,1.89,7.77,2.72,11.82,.28,1.35-.59,2.67-1.95,2.95-.17,.03-.34,.05-.51,.05Zm-6-23.25c-1.06,0-2.04-.68-2.38-1.74-1.19-3.74-2.51-7.5-3.94-11.18-.5-1.29,.14-2.74,1.43-3.23,1.29-.5,2.74,.14,3.23,1.43,1.46,3.77,2.82,7.63,4.04,11.47,.42,1.32-.31,2.72-1.63,3.14-.25,.08-.51,.12-.76,.12Zm-8.67-22.39c-.95,0-1.85-.54-2.27-1.46-1.64-3.57-3.42-7.14-5.28-10.62-.65-1.22-.19-2.73,1.02-3.38s2.73-.19,3.38,1.02c1.91,3.57,3.73,7.23,5.41,10.89,.58,1.25,.03,2.74-1.23,3.32-.34,.16-.69,.23-1.04,.23Zm-11.34-21.17c-.84,0-1.66-.42-2.13-1.19-2.06-3.35-4.26-6.68-6.52-9.91-.79-1.13-.52-2.69,.61-3.48,1.13-.79,2.69-.52,3.48,.61,2.32,3.3,4.57,6.72,6.69,10.16,.72,1.17,.36,2.71-.82,3.44-.41,.25-.86,.37-1.31,.37Zm-13.79-19.65c-.74,0-1.46-.32-1.96-.94-2.46-3.09-5.04-6.13-7.66-9.05-.92-1.03-.84-2.61,.19-3.53s2.61-.84,3.53,.19c2.69,2.99,5.34,6.12,7.86,9.28,.86,1.08,.68,2.65-.4,3.51-.46,.37-1.01,.54-1.55,.54Zm-16.06-17.84c-.63,0-1.27-.24-1.75-.72-2.81-2.76-5.74-5.47-8.71-8.05-1.04-.91-1.15-2.48-.25-3.53,.9-1.04,2.48-1.16,3.53-.25,3.04,2.64,6.05,5.42,8.93,8.26,.98,.97,1,2.55,.03,3.54-.49,.5-1.14,.75-1.78,.75Zm-18.13-15.74c-.53,0-1.06-.17-1.51-.51-3.14-2.39-6.38-4.71-9.64-6.88-1.15-.76-1.46-2.32-.7-3.47,.76-1.15,2.32-1.46,3.47-.7,3.35,2.23,6.69,4.61,9.91,7.07,1.1,.84,1.31,2.41,.47,3.5-.49,.64-1.24,.98-1.99,.98Zm-227.86-9.42h-.04c-2.63-.04-5.23-.28-7.75-.72-1.6-.28-3.2-.65-4.75-1.09-1.33-.38-2.1-1.76-1.72-3.09,.38-1.33,1.76-2.1,3.09-1.72,1.39,.4,2.82,.72,4.25,.97,2.25,.4,4.59,.61,6.96,.65,1.38,.02,2.48,1.16,2.46,2.54-.02,1.37-1.14,2.46-2.5,2.46Zm11.93-1.14c-1.17,0-2.22-.83-2.45-2.02-.27-1.35,.62-2.67,1.97-2.93,3.49-.68,7.17-1.68,11.26-3.06,1.31-.44,2.73,.26,3.17,1.57,.44,1.31-.26,2.73-1.57,3.17-4.3,1.45-8.19,2.5-11.9,3.23-.16,.03-.32,.05-.48,.05Zm195.95-2.74c-.42,0-.85-.11-1.24-.33-2.78-1.59-5.62-3.13-8.46-4.55-.67-.34-1.33-.67-2-.99-1.24-.6-1.76-2.1-1.15-3.34,.6-1.24,2.1-1.76,3.34-1.15,.69,.34,1.38,.68,2.07,1.02,2.91,1.47,5.84,3.04,8.7,4.68,1.2,.69,1.61,2.22,.92,3.41-.46,.81-1.3,1.26-2.17,1.26Zm-230.68-2.66c-.45,0-.9-.12-1.3-.37-3.48-2.13-6.79-4.77-9.83-7.85-.97-.98-.96-2.56,.02-3.54,.98-.97,2.56-.96,3.54,.02,2.76,2.79,5.75,5.18,8.88,7.1,1.18,.72,1.55,2.26,.83,3.44-.47,.77-1.29,1.19-2.13,1.19Zm57.55-2c-.98,0-1.92-.59-2.31-1.55-.52-1.28,.09-2.74,1.37-3.26,2.16-.89,4.32-1.79,6.48-2.7,1.54-.65,3.07-1.29,4.6-1.93,1.27-.53,2.74,.08,3.27,1.35,.53,1.28-.08,2.74-1.35,3.27-1.52,.63-3.05,1.27-4.58,1.92-2.17,.91-4.34,1.83-6.52,2.72-.31,.13-.63,.19-.95,.19Zm151.55-5.86c-.31,0-.63-.06-.94-.18-3.63-1.48-7.38-2.85-11.12-4.09-1.31-.43-2.02-1.85-1.59-3.16,.43-1.31,1.84-2.02,3.16-1.59,3.85,1.27,7.69,2.68,11.43,4.2,1.28,.52,1.9,1.98,1.38,3.26-.39,.97-1.33,1.56-2.32,1.56Zm-129.26-3.12c-1.03,0-1.99-.64-2.36-1.67-.46-1.3,.22-2.73,1.52-3.19,3.8-1.34,7.71-2.58,11.62-3.67,1.33-.37,2.71,.41,3.08,1.74,.37,1.33-.41,2.71-1.74,3.08-3.8,1.06-7.6,2.26-11.29,3.56-.28,.1-.56,.14-.83,.14Zm106.47-4.41c-.21,0-.42-.03-.63-.08-3.8-.98-7.69-1.85-11.56-2.58-1.36-.26-2.25-1.57-1.99-2.92,.26-1.36,1.57-2.25,2.92-1.99,3.98,.75,7.97,1.65,11.88,2.66,1.34,.35,2.14,1.71,1.8,3.05-.29,1.13-1.31,1.88-2.42,1.88Zm-203.18-1.42c-.81,0-1.61-.39-2.09-1.12-2.2-3.32-4.21-6.97-5.99-10.85-.58-1.25-.02-2.74,1.23-3.31,1.26-.58,2.74-.02,3.31,1.23,1.67,3.64,3.56,7.07,5.61,10.17,.76,1.15,.45,2.7-.7,3.46-.42,.28-.9,.42-1.38,.42Zm119.84-.62c-1.16,0-2.2-.81-2.44-1.99-.28-1.35,.59-2.68,1.94-2.96,3.95-.82,7.99-1.52,12-2.08,1.36-.19,2.63,.76,2.82,2.13,.19,1.37-.76,2.63-2.13,2.82-3.9,.54-7.83,1.22-11.67,2.02-.17,.04-.34,.05-.51,.05Zm59.76-2.43c-.1,0-.2,0-.31-.02-3.91-.48-7.88-.84-11.8-1.06-1.38-.08-2.43-1.26-2.35-2.64,.08-1.38,1.27-2.42,2.64-2.35,4.03,.23,8.11,.6,12.13,1.09,1.37,.17,2.34,1.42,2.18,2.79-.16,1.27-1.23,2.2-2.48,2.2Zm-35.98-.89c-1.3,0-2.39-1-2.49-2.32-.1-1.38,.93-2.58,2.31-2.68,4.03-.29,8.12-.46,12.16-.49,1.39,.03,2.51,1.1,2.52,2.48,.01,1.38-1.1,2.51-2.48,2.52-3.93,.03-7.92,.19-11.84,.48-.06,0-.12,0-.19,0Zm-153.7-17.79c-1.06,0-2.05-.69-2.39-1.76-1.2-3.83-2.2-7.84-3-11.92-.26-1.36,.62-2.67,1.98-2.93,1.36-.26,2.67,.62,2.93,1.98,.76,3.9,1.72,7.73,2.86,11.39,.41,1.32-.32,2.72-1.64,3.13-.25,.08-.5,.11-.75,.11Zm-4.61-23.55c-1.28,0-2.37-.98-2.49-2.28-.32-3.57-.48-7.19-.48-10.74,0-.51,0-1.01,0-1.52,.02-1.37,1.13-2.47,2.5-2.47h.03c1.38,.02,2.49,1.15,2.47,2.53,0,.48,0,.97,0,1.45,0,3.41,.16,6.87,.46,10.29,.12,1.38-.89,2.59-2.27,2.71-.08,0-.15,0-.23,0Zm.29-23.99c-.08,0-.17,0-.25-.01-1.37-.14-2.38-1.36-2.24-2.74,.38-3.77,.87-7.71,1.5-12.04,.2-1.37,1.46-2.31,2.84-2.11,1.37,.2,2.31,1.47,2.11,2.84-.62,4.25-1.11,8.11-1.47,11.8-.13,1.29-1.22,2.25-2.48,2.25Zm3.41-23.78c-.14,0-.29-.01-.43-.04-1.36-.24-2.27-1.53-2.03-2.89,.62-3.56,1.27-7.12,1.92-10.68l.21-1.17c.25-1.36,1.55-2.26,2.91-2.01,1.36,.25,2.26,1.55,2.01,2.91l-.21,1.17c-.65,3.54-1.29,7.09-1.91,10.64-.21,1.21-1.27,2.07-2.46,2.07Zm4.23-23.65c-.14,0-.28-.01-.42-.04-1.36-.23-2.28-1.52-2.04-2.88,.75-4.39,1.35-8.25,1.85-11.79,.19-1.37,1.46-2.32,2.82-2.13,1.37,.19,2.32,1.45,2.13,2.82-.5,3.6-1.11,7.5-1.87,11.94-.21,1.22-1.27,2.08-2.46,2.08Zm3.23-23.8c-.07,0-.15,0-.22,0-1.38-.12-2.39-1.33-2.27-2.71,.36-4.16,.57-8.02,.62-11.81,.02-1.38,1.15-2.5,2.54-2.46,1.38,.02,2.48,1.16,2.46,2.54-.06,3.91-.27,7.89-.64,12.17-.11,1.3-1.21,2.28-2.49,2.28Zm.27-24c-1.29,0-2.39-.99-2.49-2.3-.2-2.5-.47-4.98-.83-7.37-.21-1.41-.45-2.84-.72-4.26-.26-1.36,.63-2.67,1.99-2.93,1.36-.26,2.67,.63,2.93,1.99,.28,1.48,.54,2.99,.75,4.47,.37,2.5,.66,5.1,.86,7.71,.11,1.38-.92,2.58-2.3,2.69-.07,0-.13,0-.2,0Zm-4.52-23.54c-1.06,0-2.05-.68-2.38-1.75-1.16-3.69-2.57-7.38-4.16-10.95-.56-1.26,0-2.74,1.26-3.3,1.26-.56,2.74,0,3.3,1.26,1.67,3.75,3.14,7.61,4.37,11.49,.42,1.32-.31,2.72-1.63,3.14-.25,.08-.5,.12-.75,.12Zm-9.75-21.89c-.86,0-1.69-.44-2.16-1.24-1.95-3.33-4.12-6.63-6.46-9.81-.82-1.11-.58-2.68,.54-3.5,1.11-.82,2.68-.58,3.5,.54,2.44,3.32,4.7,6.76,6.74,10.24,.7,1.19,.3,2.72-.89,3.42-.4,.23-.83,.34-1.26,.34Zm-14.18-19.34c-.69,0-1.37-.28-1.86-.83-2.58-2.88-5.36-5.71-8.26-8.4-1.01-.94-1.07-2.52-.13-3.53,.94-1.01,2.52-1.07,3.53-.13,3.01,2.79,5.9,5.73,8.59,8.73,.92,1.03,.84,2.61-.19,3.53-.48,.43-1.07,.64-1.67,.64Zm-17.58-16.34c-.54,0-1.08-.17-1.53-.53-3.07-2.39-6.31-4.7-9.61-6.86-1.16-.76-1.48-2.3-.72-3.46,.76-1.15,2.31-1.48,3.46-.72,3.42,2.23,6.76,4.62,9.95,7.1,1.09,.85,1.29,2.42,.44,3.51-.49,.63-1.23,.96-1.97,.96Zm-218.04-7.68c-1.04,0-2.01-.65-2.37-1.69-.45-1.31,.25-2.73,1.56-3.17,4.05-1.39,7.79-2.64,11.42-3.84,1.31-.43,2.72,.28,3.16,1.59,.43,1.31-.28,2.72-1.59,3.16-3.61,1.19-7.33,2.44-11.36,3.82-.27,.09-.54,.14-.81,.14Zm197.95-5.47c-.4,0-.82-.1-1.2-.31-3.43-1.88-7-3.64-10.59-5.26-1.26-.57-1.82-2.05-1.26-3.3,.56-1.26,2.04-1.82,3.3-1.26,3.71,1.67,7.39,3.49,10.93,5.43,1.21,.66,1.66,2.18,1,3.39-.45,.83-1.31,1.3-2.2,1.3Zm-175.12-2.02c-1.07,0-2.05-.69-2.39-1.76-.41-1.32,.33-2.72,1.65-3.13,3.96-1.23,7.85-2.4,11.56-3.47,1.33-.38,2.71,.38,3.09,1.71,.38,1.33-.38,2.71-1.71,3.09-3.68,1.06-7.53,2.22-11.46,3.44-.25,.08-.5,.11-.74,.11Zm23.09-6.64c-1.11,0-2.12-.74-2.42-1.87-.35-1.34,.45-2.7,1.79-3.05,3.98-1.04,7.93-2.01,11.74-2.89,1.35-.31,2.69,.53,3,1.87s-.53,2.69-1.87,3c-3.76,.87-7.66,1.83-11.6,2.86-.21,.06-.43,.08-.63,.08Zm130.13-1.18c-.28,0-.57-.05-.85-.15-3.7-1.33-7.49-2.53-11.27-3.57-1.33-.37-2.11-1.74-1.75-3.07,.37-1.33,1.74-2.11,3.07-1.75,3.9,1.07,7.81,2.31,11.63,3.68,1.3,.47,1.97,1.9,1.51,3.2-.37,1.02-1.33,1.65-2.35,1.65Zm-106.72-4.2c-1.17,0-2.22-.83-2.45-2.02-.26-1.35,.62-2.67,1.97-2.93,4.03-.79,8.04-1.49,11.93-2.09,1.37-.22,2.64,.72,2.85,2.09,.21,1.36-.72,2.64-2.09,2.85-3.82,.59-7.77,1.29-11.74,2.06-.16,.03-.32,.05-.48,.05Zm83.57-2.14c-.16,0-.31-.01-.47-.04-2.53-.48-5.09-.9-7.6-1.24-1.36-.18-2.72-.35-4.08-.51-1.37-.15-2.36-1.39-2.2-2.76,.15-1.37,1.39-2.36,2.76-2.2,1.4,.16,2.79,.33,4.19,.52,2.6,.35,5.25,.78,7.87,1.28,1.36,.26,2.25,1.57,1.99,2.92-.23,1.2-1.28,2.03-2.45,2.03Zm-59.83-1.53c-1.26,0-2.34-.95-2.48-2.22-.15-1.37,.84-2.61,2.21-2.76,4.07-.45,8.14-.8,12.09-1.05,1.4-.09,2.56,.96,2.65,2.34,.09,1.38-.96,2.56-2.34,2.65-3.87,.24-7.85,.58-11.85,1.03-.09,.01-.19,.02-.28,.02Zm35.99-1.21s-.08,0-.13,0c-3.88-.19-7.89-.28-11.86-.24-1.34,0-2.51-1.1-2.52-2.48-.01-1.38,1.1-2.51,2.48-2.52,4.08-.03,8.17,.05,12.16,.25,1.38,.07,2.44,1.24,2.37,2.62-.07,1.34-1.17,2.38-2.5,2.38Z" fill="#49ff00"/></g><g id="change1_3"><path d="M907.22,745.3c-.53,0-1.06-.17-1.51-.51-1.1-.84-1.31-2.41-.47-3.5,1.18-1.56,2.38-3.16,3.54-4.77,.81-1.12,2.37-1.37,3.49-.56,1.12,.81,1.37,2.37,.56,3.49-1.19,1.64-2.4,3.28-3.61,4.87-.49,.65-1.24,.99-1.99,.99Z" fill="#49ff00"/></g></svg>